<svg width="1071" height="1071" xmlns="http://www.w3.org/2000/svg" xmlns:xlink="http://www.w3.org/1999/xlink" xml:space="preserve" overflow="hidden"><g transform="translate(-929 -4447)"><rect x="929" y="4447" width="357" height="357" fill="#93C42D"/><rect x="1286" y="4447" width="357" height="357" fill="#E6B952"/><rect x="1643" y="4447" width="357" height="357" fill="#8FC12A"/><rect x="929" y="4804" width="357" height="357" fill="#DDD712"/><rect x="1286.5" y="4804.5" width="357" height="357" stroke="#042433" stroke-width="6.875" stroke-miterlimit="8" fill="#93C42D"/><rect x="1643" y="4804" width="357" height="357" fill="#5FB095"/><rect x="929" y="5161" width="357" height="357" fill="#8FC12A"/><rect x="1286" y="5161" width="357" height="357" fill="#5FB095"/><rect x="1643" y="5161" width="357" height="357" fill="#93C42D"/><path d="M1200.87 5197.32C1067.53 5044.56 1083.29 4812.63 1236.05 4679.3 1388.82 4545.97 1620.75 4561.72 1754.08 4714.49 1887.41 4867.25 1871.66 5099.18 1718.89 5232.51 1566.13 5365.84 1334.2 5350.09 1200.87 5197.32Z" stroke="#FFFFFF" stroke-width="32.0833" stroke-miterlimit="8" fill="#FFC000" fill-rule="evenodd"/><path d="M1310.66 5101.5C1177.33 4948.73 1143.93 4759.71 1236.06 4679.3 1328.18 4598.89 1510.95 4657.55 1644.29 4810.31 1777.62 4963.08 1811.02 5152.1 1718.89 5232.51 1626.76 5312.92 1443.99 5254.26 1310.66 5101.5Z" stroke="#FFFFFF" stroke-width="22.9167" stroke-miterlimit="8" fill="#0DA6EC" fill-rule="evenodd"/><path d="M1236.05 4679.3 1718.89 5232.51" stroke="#FFFFFF" stroke-width="22.9167" stroke-miterlimit="8" fill="#FFC000" fill-rule="evenodd"/><path d="M1200.87 5197.32 1754.08 4714.49" stroke="#FFFFFF" stroke-width="22.9167" stroke-miterlimit="8" fill="#FFC000" fill-rule="evenodd"/></g></svg>