<svg width="1099" height="1099" xmlns="http://www.w3.org/2000/svg" xmlns:xlink="http://www.w3.org/1999/xlink" xml:space="preserve" overflow="hidden"><g transform="translate(-902 -1122)"><rect x="916" y="1136" width="357" height="357" stroke="#000000" stroke-width="27.5" stroke-miterlimit="8" fill="#93C42D"/><rect x="1273" y="1136" width="357" height="357" stroke="#000000" stroke-width="27.5" stroke-miterlimit="8" fill="#E6B952"/><rect x="1630" y="1136" width="357" height="357" stroke="#000000" stroke-width="27.5" stroke-miterlimit="8" fill="#8FC12A"/><rect x="916" y="1493" width="357" height="357" stroke="#000000" stroke-width="27.5" stroke-miterlimit="8" fill="#DDD712"/><rect x="1273" y="1493" width="357" height="357" stroke="#000000" stroke-width="27.5" stroke-miterlimit="8" fill="#93C42D"/><rect x="1630" y="1493" width="357" height="357" stroke="#000000" stroke-width="27.5" stroke-miterlimit="8" fill="#5FB095"/><rect x="916" y="1850" width="357" height="357" stroke="#000000" stroke-width="27.5" stroke-miterlimit="8" fill="#8FC12A"/><rect x="1273" y="1850" width="357" height="357" stroke="#000000" stroke-width="27.5" stroke-miterlimit="8" fill="#5FB095"/><rect x="1630" y="1850" width="357" height="357" stroke="#000000" stroke-width="27.5" stroke-miterlimit="8" fill="#93C42D"/><path d="M1440.44 1786.12C1366.59 1786.12 1306.17 1725.76 1306.17 1652 1306.17 1578.24 1366.59 1517.88 1440.44 1517.88 1514.29 1517.88 1574.71 1578.24 1574.71 1652 1574.71 1725.76 1514.29 1786.12 1440.44 1786.12ZM1742.55 1568.18C1735.84 1543.59 1725.77 1520.12 1713.46 1498.88L1741.44 1415.06 1677.66 1351.35 1593.74 1379.29C1571.36 1367 1547.86 1356.94 1523.24 1350.24L1485.2 1272 1395.68 1272 1356.52 1350.24C1331.9 1356.94 1308.41 1367 1287.15 1379.29L1203.22 1351.35 1139.45 1415.06 1167.42 1498.88C1155.11 1521.24 1145.04 1544.71 1138.33 1569.29L1060 1607.29 1060 1696.71 1138.33 1735.82C1145.04 1760.41 1155.11 1783.88 1167.42 1805.12L1139.45 1888.94 1203.22 1952.65 1287.15 1924.71C1309.52 1937 1333.02 1947.06 1357.64 1953.76L1396.8 2032 1486.32 2032 1525.48 1953.76C1550.1 1947.06 1573.59 1937 1594.85 1924.71L1678.78 1952.65 1742.55 1888.94 1714.58 1805.12C1726.89 1782.76 1736.96 1759.29 1743.67 1734.71L1822 1695.59 1822 1606.18 1742.55 1568.18Z" stroke="#0D0D0D" stroke-width="27.5" stroke-miterlimit="8" fill="#FFFFFF" fill-rule="evenodd"/></g></svg>