<svg width="1071" height="1071" xmlns="http://www.w3.org/2000/svg" xmlns:xlink="http://www.w3.org/1999/xlink" xml:space="preserve" overflow="hidden"><g transform="translate(-929 -2829)"><rect x="929" y="2829" width="357" height="357" fill="#93C42D"/><rect x="1286" y="2829" width="357" height="357" fill="#E6B952"/><rect x="1643" y="2829" width="357" height="357" fill="#8FC12A"/><rect x="929" y="3186" width="357" height="357" fill="#DDD712"/><rect x="1286" y="3186" width="357" height="357" fill="#93C42D"/><rect x="1643" y="3186" width="357" height="357" fill="#5FB095"/><rect x="929" y="3543" width="357" height="357" fill="#8FC12A"/><rect x="1286" y="3543" width="357" height="357" fill="#5FB095"/><rect x="1643" y="3543" width="357" height="357" fill="#93C42D"/><path d="M1168.82 3657.16C1006.46 3498.41 1003.54 3238.11 1162.29 3075.75 1321.04 2913.4 1581.34 2910.48 1743.69 3069.23 1906.04 3227.98 1908.96 3488.28 1750.22 3650.63 1591.47 3812.98 1331.17 3815.9 1168.82 3657.16Z" stroke="#FFFFFF" stroke-width="27.5" stroke-miterlimit="8" fill="none" fill-rule="evenodd"/><path d="M1282.91 3540.47C1120.56 3381.72 1066.55 3173.66 1162.29 3075.75 1258.02 2977.85 1467.24 3027.17 1629.6 3185.91 1791.95 3344.66 1845.95 3552.72 1750.22 3650.63 1654.48 3748.54 1445.26 3699.22 1282.91 3540.47Z" stroke="#FFFFFF" stroke-width="27.5" stroke-miterlimit="8" fill="none" fill-rule="evenodd"/><path d="M1162.29 3075.75 1750.22 3650.63" stroke="#FFFFFF" stroke-width="27.5" stroke-miterlimit="8" fill="none" fill-rule="evenodd"/><path d="M1168.82 3657.16 1743.69 3069.23" stroke="#FFFFFF" stroke-width="27.5" stroke-miterlimit="8" fill="none" fill-rule="evenodd"/></g></svg>