<svg width="1099" height="1099" xmlns="http://www.w3.org/2000/svg" xmlns:xlink="http://www.w3.org/1999/xlink" xml:space="preserve" overflow="hidden"><g transform="translate(-2497 -1117)"><rect x="2511" y="1131" width="357" height="357" stroke="#000000" stroke-width="27.5" stroke-miterlimit="8" fill="#93C42D"/><rect x="2868" y="1131" width="357" height="357" stroke="#000000" stroke-width="27.5" stroke-miterlimit="8" fill="#E6B952"/><rect x="3225" y="1131" width="357" height="357" stroke="#000000" stroke-width="27.5" stroke-miterlimit="8" fill="#8FC12A"/><rect x="2511" y="1488" width="357" height="357" stroke="#000000" stroke-width="27.5" stroke-miterlimit="8" fill="#DDD712"/><rect x="2868" y="1488" width="357" height="357" stroke="#000000" stroke-width="27.5" stroke-miterlimit="8" fill="#93C42D"/><rect x="3225" y="1488" width="357" height="357" stroke="#000000" stroke-width="27.5" stroke-miterlimit="8" fill="#5FB095"/><rect x="2511" y="1845" width="357" height="357" stroke="#000000" stroke-width="27.5" stroke-miterlimit="8" fill="#8FC12A"/><rect x="2868" y="1845" width="357" height="357" stroke="#000000" stroke-width="27.5" stroke-miterlimit="8" fill="#5FB095"/><rect x="3225" y="1845" width="357" height="357" stroke="#000000" stroke-width="27.5" stroke-miterlimit="8" fill="#93C42D"/><path d="M2702 1489 2875 1489 2875 1317" stroke="#000000" stroke-width="27.5" stroke-miterlimit="8" fill="#FFFFFF" fill-rule="evenodd" fill-opacity="0.6"/><path d="M3385 1842 3212 1842 3212 2014" stroke="#000000" stroke-width="27.5" stroke-miterlimit="8" fill="#FFFFFF" fill-rule="evenodd" fill-opacity="0.6"/><path d="M3393 1310 3393 1840.96 3219.96 2014 2689 2014 2689 2014 2689 1483.04 2862.04 1310 3393 1310Z" stroke="#000000" stroke-width="27.5" stroke-miterlimit="8" fill="#FFFFFF" fill-rule="evenodd" fill-opacity="0.6"/></g></svg>