<svg width="1099" height="1099" xmlns="http://www.w3.org/2000/svg" xmlns:xlink="http://www.w3.org/1999/xlink" xml:space="preserve" overflow="hidden"><g transform="translate(-5155 -1122)"><rect x="5169" y="1136" width="357" height="357" stroke="#000000" stroke-width="27.5" stroke-miterlimit="8" fill="#93C42D"/><rect x="5526" y="1136" width="357" height="357" stroke="#000000" stroke-width="27.5" stroke-miterlimit="8" fill="#E6B952"/><rect x="5883" y="1136" width="357" height="357" stroke="#000000" stroke-width="27.5" stroke-miterlimit="8" fill="#8FC12A"/><rect x="5169" y="1493" width="357" height="357" stroke="#000000" stroke-width="27.5" stroke-miterlimit="8" fill="#DDD712"/><rect x="5526" y="1493" width="357" height="357" stroke="#000000" stroke-width="27.5" stroke-miterlimit="8" fill="#93C42D"/><rect x="5883" y="1493" width="357" height="357" stroke="#000000" stroke-width="27.5" stroke-miterlimit="8" fill="#5FB095"/><rect x="5169" y="1850" width="357" height="357" stroke="#000000" stroke-width="27.5" stroke-miterlimit="8" fill="#8FC12A"/><rect x="5526" y="1850" width="357" height="357" stroke="#000000" stroke-width="27.5" stroke-miterlimit="8" fill="#5FB095"/><rect x="5883" y="1850" width="357" height="357" stroke="#000000" stroke-width="27.5" stroke-miterlimit="8" fill="#93C42D"/><path d="M5705 1670.82C5647.91 1670.82 5602.24 1629.65 5602.24 1578.18 5602.24 1526.71 5647.91 1485.53 5705 1485.53 5762.09 1485.53 5807.76 1526.71 5807.76 1578.18 5807.76 1629.65 5762.09 1670.82 5705 1670.82ZM5705 1362C5626.21 1362 5552 1397 5507.47 1456.71 5462.93 1515.38 5453.8 1590.53 5482.35 1657.44L5590.82 1873.62 5684.45 2050.68C5687.87 2057.88 5695.87 2062 5705 2062 5714.14 2062 5722.13 2057.88 5725.55 2050.68L5819.18 1873.62 5927.66 1657.44C5956.2 1590.53 5947.07 1515.38 5902.53 1456.71 5858 1397 5783.79 1362 5705 1362Z" stroke="#000000" stroke-width="27.5" stroke-miterlimit="8" fill="#FFFFFF" fill-rule="evenodd"/></g></svg>