<svg width="1099" height="1099" xmlns="http://www.w3.org/2000/svg" xmlns:xlink="http://www.w3.org/1999/xlink" xml:space="preserve" overflow="hidden"><g transform="translate(-3819 -1108)"><rect x="3833" y="1122" width="357" height="357" stroke="#000000" stroke-width="27.5" stroke-miterlimit="8" fill="#93C42D"/><rect x="4190" y="1122" width="357" height="357" stroke="#000000" stroke-width="27.5" stroke-miterlimit="8" fill="#E6B952"/><rect x="4547" y="1122" width="357" height="357" stroke="#000000" stroke-width="27.5" stroke-miterlimit="8" fill="#8FC12A"/><rect x="3833" y="1479" width="357" height="357" stroke="#000000" stroke-width="27.5" stroke-miterlimit="8" fill="#DDD712"/><rect x="4190" y="1479" width="357" height="357" stroke="#000000" stroke-width="27.5" stroke-miterlimit="8" fill="#93C42D"/><rect x="4547" y="1479" width="357" height="357" stroke="#000000" stroke-width="27.5" stroke-miterlimit="8" fill="#5FB095"/><rect x="3833" y="1836" width="357" height="357" stroke="#000000" stroke-width="27.5" stroke-miterlimit="8" fill="#8FC12A"/><rect x="4190" y="1836" width="357" height="357" stroke="#000000" stroke-width="27.5" stroke-miterlimit="8" fill="#5FB095"/><rect x="4547" y="1836" width="357" height="357" stroke="#000000" stroke-width="27.5" stroke-miterlimit="8" fill="#93C42D"/><path d="M4021 1477 4194 1477 4194 1304" stroke="#000000" stroke-width="27.5" stroke-miterlimit="8" fill="#000000" fill-rule="evenodd" fill-opacity="0.6"/><path d="M4703 1829 4531 1829 4531 2002" stroke="#000000" stroke-width="27.5" stroke-miterlimit="8" fill="#000000" fill-rule="evenodd" fill-opacity="0.6"/><path d="M4712 1298 4712 1828.2 4539.2 2001 4008 2001 4008 2001 4008 1470.8 4180.8 1298 4712 1298Z" stroke="#000000" stroke-width="27.5" stroke-miterlimit="8" fill="#000000" fill-rule="evenodd" fill-opacity="0.6"/></g></svg>