<svg width="1092" height="1092" xmlns="http://www.w3.org/2000/svg" xmlns:xlink="http://www.w3.org/1999/xlink" xml:space="preserve" overflow="hidden"><g transform="translate(-5053 -3976)"><rect x="5063.5" y="3986.5" width="357" height="357" stroke="#FFFFFF" stroke-width="20.625" stroke-miterlimit="8" fill="#93C42D"/><rect x="5420.5" y="3986.5" width="357" height="357" stroke="#FFFFFF" stroke-width="20.625" stroke-miterlimit="8" fill="#E6B952"/><rect x="5777.5" y="3986.5" width="357" height="357" stroke="#FFFFFF" stroke-width="20.625" stroke-miterlimit="8" fill="#8FC12A"/><rect x="5063.5" y="4343.5" width="357" height="357" stroke="#FFFFFF" stroke-width="20.625" stroke-miterlimit="8" fill="#DDD712"/><rect x="5420.5" y="4343.5" width="357" height="357" stroke="#FFFFFF" stroke-width="20.625" stroke-miterlimit="8" fill="#93C42D"/><rect x="5777.5" y="4343.5" width="357" height="357" stroke="#FFFFFF" stroke-width="20.625" stroke-miterlimit="8" fill="#5FB095"/><rect x="5063.5" y="4700.5" width="357" height="357" stroke="#FFFFFF" stroke-width="20.625" stroke-miterlimit="8" fill="#8FC12A"/><rect x="5420.5" y="4700.5" width="357" height="357" stroke="#FFFFFF" stroke-width="20.625" stroke-miterlimit="8" fill="#5FB095"/><rect x="5777.5" y="4700.5" width="357" height="357" stroke="#FFFFFF" stroke-width="20.625" stroke-miterlimit="8" fill="#93C42D"/><path d="M5346.75 4734.66C5213.42 4581.89 5229.17 4349.96 5381.94 4216.63 5534.7 4083.3 5766.63 4099.05 5899.96 4251.82 6033.3 4404.58 6017.54 4636.51 5864.78 4769.84 5712.01 4903.18 5480.08 4887.42 5346.75 4734.66Z" stroke="#FFFFFF" stroke-width="32.0833" stroke-miterlimit="8" fill="none" fill-rule="evenodd"/><path d="M5520.48 4583.03C5387.14 4430.27 5325.12 4266.22 5381.94 4216.63 5438.76 4167.04 5592.91 4250.68 5726.24 4403.44 5859.57 4556.21 5921.6 4720.25 5864.78 4769.84 5807.96 4819.44 5653.81 4735.8 5520.48 4583.03Z" stroke="#FFFFFF" stroke-width="22.9167" stroke-miterlimit="8" fill="none" fill-rule="evenodd"/></g></svg>