<svg width="1071" height="1071" xmlns="http://www.w3.org/2000/svg" xmlns:xlink="http://www.w3.org/1999/xlink" xml:space="preserve" overflow="hidden"><defs><clipPath id="clip0"><rect x="2511" y="2845" width="1071" height="1071"/></clipPath></defs><g clip-path="url(#clip0)" transform="translate(-2511 -2845)"><rect x="2511" y="2845" width="357" height="357" fill="#93C42D"/><rect x="2868" y="2845" width="357" height="357" fill="#E6B952"/><rect x="3225" y="2845" width="357" height="357" fill="#8FC12A"/><rect x="2511" y="3202" width="357" height="357" fill="#DDD712"/><rect x="2868" y="3202" width="357" height="357" fill="#93C42D"/><rect x="3225" y="3202" width="357" height="357" fill="#5FB095"/><rect x="2511" y="3559" width="357" height="357" fill="#8FC12A"/><rect x="2868" y="3559" width="357" height="357" fill="#5FB095"/><rect x="3225" y="3559" width="357" height="357" fill="#93C42D"/><path d="M2794.05 3593.92C2660.72 3441.16 2676.48 3209.23 2829.24 3075.9 2982.01 2942.57 3213.93 2958.32 3347.27 3111.09 3480.6 3263.85 3464.84 3495.78 3312.08 3629.11 3159.31 3762.44 2927.38 3746.69 2794.05 3593.92Z" stroke="#FFFFFF" stroke-width="32.0833" stroke-miterlimit="8" fill="#0DA6EC" fill-rule="evenodd"/><path d="M2967.78 3442.3C2834.45 3289.53 2772.42 3125.49 2829.24 3075.9 2886.06 3026.31 3040.21 3109.94 3173.54 3262.71 3306.88 3415.48 3368.9 3579.52 3312.08 3629.11 3255.26 3678.7 3101.11 3595.06 2967.78 3442.3Z" stroke="#FFFFFF" stroke-width="22.9167" stroke-miterlimit="8" fill="#FFFFFF" fill-rule="evenodd"/></g></svg>